<mxfile host="app.diagrams.net" modified="2023-10-27T10:00:00.000Z" agent="5.0 (Windows NT 10.0; Win64; x64) AppleWebKit/537.36 (KHTML, like Gecko) Chrome/118.0.0.0 Safari/537.36" etag="12345" version="22.0.8" type="device">
  <diagram name="Page-1" id="12345">
    <mxGraphModel dx="2868" dy="1588" grid="1" gridSize="10" guides="1" tooltips="1" connect="1" arrows="1" fold="1" page="1" pageScale="1" pageWidth="2000" pageHeight="1600" math="0" shadow="0">
      <root>
        <mxCell id="0" />
        <mxCell id="1" parent="0" />
        <mxCell id="pool1" value="КМ (Отдел по управлению категориями)" style="swimlane;startSize=20;" vertex="1" parent="1">
          <mxGeometry x="40" y="40" width="1920" height="300" as="geometry" />
        </mxCell>
        <mxCell id="task1_1" value="1.1. Определяет коммерческие условия" style="rounded=1;whiteSpace=wrap;html=1;" vertex="1" parent="pool1">
          <mxGeometry x="160" y="70" width="120" height="60" as="geometry" />
        </mxCell>
        <mxCell id="task1_2" value="1.2. Формирует проект Договора" style="rounded=1;whiteSpace=wrap;html=1;" vertex="1" parent="pool1">
          <mxGeometry x="320" y="70" width="120" height="60" as="geometry" />
        </mxCell>
        <mxCell id="task1_3" value="1.3. Формирует проект дополнительного соглашения" style="rounded=1;whiteSpace=wrap;html=1;" vertex="1" parent="pool1">
          <mxGeometry x="480" y="70" width="120" height="60" as="geometry" />
        </mxCell>
        <mxCell id="task1_6" value="1.6. Подписывает согласованный Договор" style="rounded=1;whiteSpace=wrap;html=1;" vertex="1" parent="pool1">
          <mxGeometry x="960" y="70" width="120" height="60" as="geometry" />
        </mxCell>
        <mxCell id="task1_7" value="1.7. Передает подписанный Договор в Бухгалтерию" style="rounded=1;whiteSpace=wrap;html=1;" vertex="1" parent="pool1">
          <mxGeometry x="1120" y="70" width="120" height="60" as="geometry" />
        </mxCell>
        <mxCell id="task1_8" value="1.8. Заносит в SAP данные по новым условиям" style="rounded=1;whiteSpace=wrap;html=1;" vertex="1" parent="pool1">
          <mxGeometry x="1280" y="70" width="120" height="60" as="geometry" />
        </mxCell>
        <mxCell id="pool2" value="Коммерческий департамент (Инициатор)" style="swimlane;startSize=20;" vertex="1" parent="1">
          <mxGeometry x="40" y="340" width="1920" height="300" as="geometry" />
        </mxCell>
        <mxCell id="task1_4" value="1.4. Согласовывает условия драфта Договора" style="rounded=1;whiteSpace=wrap;html=1;" vertex="1" parent="pool2">
          <mxGeometry x="640" y="70" width="120" height="60" as="geometry" />
        </mxCell>
        <mxCell id="task1_5" value="1.5. Согласовывает драфт с Поставщиком" style="rounded=1;whiteSpace=wrap;html=1;" vertex="1" parent="pool2">
          <mxGeometry x="800" y="70" width="120" height="60" as="geometry" />
        </mxCell>
        <mxCell id="task3_1" value="3.1. Проводит проверку предоставленного расчета" style="rounded=1;whiteSpace=wrap;html=1;" vertex="1" parent="pool2">
          <mxGeometry x="1440" y="70" width="120" height="60" as="geometry" />
        </mxCell>
        <mxCell id="task3_2" value="3.2. Согласовывает предоставленный расчёт" style="rounded=1;whiteSpace=wrap;html=1;" vertex="1" parent="pool2">
          <mxGeometry x="1600" y="70" width="120" height="60" as="geometry" />
        </mxCell>
        <mxCell id="task3_3" value="3.3. При выявлении ошибок, информирует бухгалтерию" style="rounded=1;whiteSpace=wrap;html=1;" vertex="1" parent="pool2">
          <mxGeometry x="1760" y="70" width="120" height="60" as="geometry" />
        </mxCell>
        <mxCell id="pool3" value="Бухгалтерия" style="swimlane;startSize=20;" vertex="1" parent="1">
          <mxGeometry x="40" y="640" width="1920" height="300" as="geometry" />
        </mxCell>
        <mxCell id="task2_1" value="2.1. Запускает формирование выгрузки по ретро-бонусам" style="rounded=1;whiteSpace=wrap;html=1;" vertex="1" parent="pool3">
          <mxGeometry x="160" y="140" width="120" height="60" as="geometry" />
        </mxCell>
        <mxCell id="task2_2" value="2.2. Выделяет вручную список неофактурованных поставок" style="rounded=1;whiteSpace=wrap;html=1;" vertex="1" parent="pool3">
          <mxGeometry x="320" y="140" width="120" height="60" as="geometry" />
        </mxCell>
        <mxCell id="task2_3" value="2.3. Выгружает финальный отчёт" style="rounded=1;whiteSpace=wrap;html=1;" vertex="1" parent="pool3">
          <mxGeometry x="480" y="140" width="120" height="60" as="geometry" />
        </mxCell>
        <mxCell id="task2_4" value="2.4. Направляет по электронной почте расчёт в формате Excel" style="rounded=1;whiteSpace=wrap;html=1;" vertex="1" parent="pool3">
          <mxGeometry x="640" y="140" width="120" height="60" as="geometry" />
        </mxCell>
        <mxCell id="task5_1" value="5.1. Осуществляет контроль" style="rounded=1;whiteSpace=wrap;html=1;" vertex="1" parent="pool3">
          <mxGeometry x="800" y="140" width="120" height="60" as="geometry" />
        </mxCell>
        <mxCell id="task6_1" value="6.1. Направляет информацию по электронной почте" style="rounded=1;whiteSpace=wrap;html=1;" vertex="1" parent="pool3">
          <mxGeometry x="960" y="140" width="120" height="60" as="geometry" />
        </mxCell>
        <mxCell id="pool4" value="Группа учёта услуг и коммерческих операций" style="swimlane;startSize=20;" vertex="1" parent="1">
          <mxGeometry x="40" y="940" width="1920" height="300" as="geometry" />
        </mxCell>
        <mxCell id="task4_1" value="4.1. Выставляет счета-фактуры Поставщику" style="rounded=1;whiteSpace=wrap;html=1;" vertex="1" parent="pool4">
          <mxGeometry x="160" y="210" width="120" height="60" as="geometry" />
        </mxCell>
        <mxCell id="task4_2" value="4.2. Подписывает счета-фактуры с использованием ЭЦП" style="rounded=1;whiteSpace=wrap;html=1;" vertex="1" parent="pool4">
          <mxGeometry x="320" y="210" width="120" height="60" as="geometry" />
        </mxCell>
        <mxCell id="task4_3" value="4.3. Направляет сформированные счета-фактуру Поставщику" style="rounded=1;whiteSpace=wrap;html=1;" vertex="1" parent="pool4">
          <mxGeometry x="480" y="210" width="120" height="60" as="geometry" />
        </mxCell>
        <mxCell id="task4_4" value="4.4. Поставщиками, которые предоставляют акт сверки" style="rounded=1;whiteSpace=wrap;html=1;" vertex="1" parent="pool4">
          <mxGeometry x="640" y="210" width="120" height="60" as="geometry" />
        </mxCell>
        <mxCell id="task4_5" value="4.5. По результатам сверки с Поставщиком вносит необходимые корректировки" style="rounded=1;whiteSpace=wrap;html=1;" vertex="1" parent="pool4">
          <mxGeometry x="800" y="210" width="120" height="60" as="geometry" />
        </mxCell>
        <mxCell id="task4_6" value="4.6. Проводит мониторинг принятия или отказа счёт-фактуры" style="rounded=1;whiteSpace=wrap;html=1;" vertex="1" parent="pool4">
          <mxGeometry x="960" y="210" width="120" height="60" as="geometry" />
        </mxCell>
        <mxCell id="task4_7" value="4.7. После выверки расчёта и подписания счёт-фактуры" style="rounded=1;whiteSpace=wrap;html=1;" vertex="1" parent="pool4">
          <mxGeometry x="1120" y="210" width="120" height="60" as="geometry" />
        </mxCell>
        <mxCell id="start" value="Начало" style="ellipse;whiteSpace=wrap;html=1;aspect=fixed;" vertex="1" parent="1">
          <mxGeometry x="40" y="100" width="80" height="80" as="geometry" />
        </mxCell>
        <mxCell id="end" value="Конец" style="ellipse;whiteSpace=wrap;html=1;aspect=fixed;" vertex="1" parent="1">
          <mxGeometry x="1800" y="1000" width="80" height="80" as="geometry" />
        </mxCell>
        <mxCell id="flow1" value="" style="endArrow=classic;html=1;rounded=0;" edge="1" parent="1" source="start" target="task1_1">
          <mxGeometry width="50" height="50" relative="1" as="geometry">
            <mxPoint x="120" y="140" as="sourcePoint" />
            <mxPoint x="170" y="90" as="targetPoint" />
          </mxGeometry>
        </mxCell>
        <mxCell id="flow2" value="" style="endArrow=classic;html=1;rounded=0;" edge="1" parent="1" source="task1_1" target="task1_2">
          <mxGeometry width="50" height="50" relative="1" as="geometry">
            <mxPoint x="280" y="140" as="sourcePoint" />
            <mxPoint x="330" y="90" as="targetPoint" />
          </mxGeometry>
        </mxCell>
        <mxCell id="flow3" value="" style="endArrow=classic;html=1;rounded=0;" edge="1" parent="1" source="task1_2" target="task1_3">
          <mxGeometry width="50" height="50" relative="1" as="geometry">
            <mxPoint x="440" y="140" as="sourcePoint" />
            <mxPoint x="490" y="90" as="targetPoint" />
          </mxGeometry>
        </mxCell>
        <mxCell id="flow4" value="" style="endArrow=classic;html=1;rounded=0;" edge="1" parent="1" source="task1_3" target="task1_4">
          <mxGeometry width="50" height="50" relative="1" as="geometry">
            <mxPoint x="600" y="140" as="sourcePoint" />
            <mxPoint x="650" y="90" as="targetPoint" />
          </mxGeometry>
        </mxCell>
        <mxCell id="flow5" value="" style="endArrow=classic;html=1;rounded=0;" edge="1" parent="1" source="task1_4" target="task1_5">
          <mxGeometry width="50" height="50" relative="1" as="geometry">
            <mxPoint x="760" y="140" as="sourcePoint" />
            <mxPoint x="810" y="90" as="targetPoint" />
          </mxGeometry>
        </mxCell>
        <mxCell id="flow6" value="" style="endArrow=classic;html=1;rounded=0;" edge="1" parent="1" source="task1_5" target="task1_6">
          <mxGeometry width="50" height="50" relative="1" as="geometry">
            <mxPoint x="920" y="140" as="sourcePoint" />
            <mxPoint x="970" y="90" as="targetPoint" />
          </mxGeometry>
        </mxCell>
        <mxCell id="flow7" value="" style="endArrow=classic;html=1;rounded=0;" edge="1" parent="1" source="task1_6" target="task1_7">
          <mxGeometry width="50" height="50" relative="1" as="geometry">
            <mxPoint x="1080" y="140" as="sourcePoint" />
            <mxPoint x="1130" y="90" as="targetPoint" />
          </mxGeometry>
        </mxCell>
        <mxCell id="flow8" value="" style="endArrow=classic;html=1;rounded=0;" edge="1" parent="1" source="task1_7" target="task1_8">
          <mxGeometry width="50" height="50" relative="1" as="geometry">
            <mxPoint x="1240" y="140" as="sourcePoint" />
            <mxPoint x="1290" y="90" as="targetPoint" />
          </mxGeometry>
        </mxCell>
        <mxCell id="flow9" value="" style="endArrow=classic;html=1;rounded=0;" edge="1" parent="1" source="task1_8" target="task2_1">
          <mxGeometry width="50" height="50" relative="1" as="geometry">
            <mxPoint x="1400" y="140" as="sourcePoint" />
            <mxPoint x="170" y="790" as="targetPoint" />
            <Array as="points">
              <mxPoint x="1400" y="460" />
              <mxPoint x="170" y="460" />
            </Array>
          </mxGeometry>
        </mxCell>
        <mxCell id="flow10" value="" style="endArrow=classic;html=1;rounded=0;" edge="1" parent="1" source="task2_1" target="task2_2">
          <mxGeometry width="50" height="50" relative="1" as="geometry">
            <mxPoint x="280" y="790" as="sourcePoint" />
            <mxPoint x="330" y="740" as="targetPoint" />
          </mxGeometry>
        </mxCell>
        <mxCell id="flow11" value="" style="endArrow=classic;html=1;rounded=0;" edge="1" parent="1" source="task2_2" target="task2_3">
          <mxGeometry width="50" height="50" relative="1" as="geometry">
            <mxPoint x="440" y="790" as="sourcePoint" />
            <mxPoint x="490" y="740" as="targetPoint" />
          </mxGeometry>
        </mxCell>
        <mxCell id="flow12" value="" style="endArrow=classic;html=1;rounded=0;" edge="1" parent="1" source="task2_3" target="task2_4">
          <mxGeometry width="50" height="50" relative="1" as="geometry">
            <mxPoint x="600" y="790" as="sourcePoint" />
            <mxPoint x="650" y="740" as="targetPoint" />
          </mxGeometry>
        </mxCell>
        <mxCell id="flow13" value="" style="endArrow=classic;html=1;rounded=0;" edge="1" parent="1" source="task2_4" target="task3_1">
          <mxGeometry width="50" height="50" relative="1" as="geometry">
            <mxPoint x="760" y="790" as="sourcePoint" />
            <mxPoint x="1450" y="410" as="targetPoint" />
            <Array as="points">
              <mxPoint x="760" y="410" />
            </Array>
          </mxGeometry>
        </mxCell>
        <mxCell id="flow14" value="" style="endArrow=classic;html=1;rounded=0;" edge="1" parent="1" source="task3_1" target="task3_2">
          <mxGeometry width="50" height="50" relative="1" as="geometry">
            <mxPoint x="1560" y="410" as="sourcePoint" />
            <mxPoint x="1610" y="360" as="targetPoint" />
          </mxGeometry>
        </mxCell>
        <mxCell id="flow15" value="" style="endArrow=classic;html=1;rounded=0;" edge="1" parent="1" source="task3_2" target="task3_3">
          <mxGeometry width="50" height="50" relative="1" as="geometry">
            <mxPoint x="1720" y="410" as="sourcePoint" />
            <mxPoint x="1770" y="360" as="targetPoint" />
          </mxGeometry>
        </mxCell>
        <mxCell id="flow16" value="" style="endArrow=classic;html=1;rounded=0;" edge="1" parent="1" source="task3_3" target="task4_1">
          <mxGeometry width="50" height="50" relative="1" as="geometry">
            <mxPoint x="1880" y="410" as="sourcePoint" />
            <mxPoint x="170" y="1150" as="targetPoint" />
            <Array as="points">
              <mxPoint x="1880" y="1150" />
            </Array>
          </mxGeometry>
        </mxCell>
        <mxCell id="flow17" value="" style="endArrow=classic;html=1;rounded=0;" edge="1" parent="1" source="task4_1" target="task4_2">
          <mxGeometry width="50" height="50" relative="1" as="geometry">
            <mxPoint x="280" y="1150" as="sourcePoint" />
            <mxPoint x="330" y="1100" as="targetPoint" />
          </mxGeometry>
        </mxCell>
        <mxCell id="flow18" value="" style="endArrow=classic;html=1;rounded=0;" edge="1" parent="1" source="task4_2" target="task4_3">
          <mxGeometry width="50" height="50" relative="1" as="geometry">
            <mxPoint x="440" y="1150" as="sourcePoint" />
            <mxPoint x="490" y="1100" as="targetPoint" />
          </mxGeometry>
        </mxCell>
        <mxCell id="flow19" value="" style="endArrow=classic;html=1;rounded=0;" edge="1" parent="1" source="task4_3" target="task4_4">
          <mxGeometry width="50" height="50" relative="1" as="geometry">
            <mxPoint x="600" y="1150" as="sourcePoint" />
            <mxPoint x="650" y="1100" as="targetPoint" />
          </mxGeometry>
        </mxCell>
        <mxCell id="flow20" value="" style="endArrow=classic;html=1;rounded=0;" edge="1" parent="1" source="task4_4" target="task4_5">
          <mxGeometry width="50" height="50" relative="1" as="geometry">
            <mxPoint x="760" y="1150" as="sourcePoint" />
            <mxPoint x="810" y="1100" as="targetPoint" />
          </mxGeometry>
        </mxCell>
        <mxCell id="flow21" value="" style="endArrow=classic;html=1;rounded=0;" edge="1" parent="1" source="task4_5" target="task4_6">
          <mxGeometry width="50" height="50" relative="1" as="geometry">
            <mxPoint x="920" y="1150" as="sourcePoint" />
            <mxPoint x="970" y="1100" as="targetPoint" />
          </mxGeometry>
        </mxCell>
        <mxCell id="flow22" value="" style="endArrow=classic;html=1;rounded=0;" edge="1" parent="1" source="task4_6" target="task4_7">
          <mxGeometry width="50" height="50" relative="1" as="geometry">
            <mxPoint x="1080" y="1150" as="sourcePoint" />
            <mxPoint x="1130" y="1100" as="targetPoint" />
          </mxGeometry>
        </mxCell>
        <mxCell id="flow23" value="" style="endArrow=classic;html=1;rounded=0;" edge="1" parent="1" source="task4_7" target="task5_1">
          <mxGeometry width="50" height="50" relative="1" as="geometry">
            <mxPoint x="1240" y="1150" as="sourcePoint" />
            <mxPoint x="810" y="780" as="targetPoint" />
            <Array as="points">
              <mxPoint x="1240" y="780" />
            </Array>
          </mxGeometry>
        </mxCell>
        <mxCell id="flow24" value="" style="endArrow=classic;html=1;rounded=0;" edge="1" parent="1" source="task5_1" target="task6_1">
          <mxGeometry width="50" height="50" relative="1" as="geometry">
            <mxPoint x="920" y="780" as="sourcePoint" />
            <mxPoint x="970" y="730" as="targetPoint" />
          </mxGeometry>
        </mxCell>
        <mxCell id="flow25" value="" style="endArrow=classic;html=1;rounded=0;" edge="1" parent="1" source="task6_1" target="end">
          <mxGeometry width="50" height="50" relative="1" as="geometry">
            <mxPoint x="1080" y="780" as="sourcePoint" />
            <mxPoint x="1810" y="1040" as="targetPoint" />
            <Array as="points">
              <mxPoint x="1080" y="1040" />
            </Array>
          </mxGeometry>
        </mxCell>
      </root>
    </mxGraphModel>
  </diagram>
</mxfile>
